<svg xmlns="http://www.w3.org/2000/svg" viewBox="0 0 512 512"><defs><linearGradient id="b" x2="1" y2="1"><stop stop-color="#ff375f"/><stop offset="1" stop-color="#7a0d2a"/></linearGradient></defs><rect width="512" height="512" rx="52" fill="url(#b)"/><path d="M102 401c18-98 76-154 154-154s136 56 154 154v111H102z" fill="#161923"/><circle cx="256" cy="205" r="119" fill="#ffccad"/><path d="M139 186c15-93 66-139 131-139 71 0 118 48 121 148-38-31-85-46-142-39-45 6-82 16-110 30Z" fill="#31151d"/><circle cx="213" cy="211" r="13" fill="#181818"/><circle cx="300" cy="211" r="13" fill="#181818"/><path d="M213 263c31 25 56 25 87 0" fill="none" stroke="#b33a52" stroke-width="14" stroke-linecap="round"/></svg>