<svg xmlns="http://www.w3.org/2000/svg" viewBox="0 0 512 512"><defs><linearGradient id="b" x2="1" y2="1"><stop stop-color="#3be0e7"/><stop offset="1" stop-color="#116478"/></linearGradient></defs><rect width="512" height="512" rx="52" fill="url(#b)"/><path d="M92 235c0-101 74-175 164-175s164 74 164 175v90c0 77-58 135-164 135S92 402 92 325Z" fill="#f2c09b"/><path d="M103 187c30-83 87-127 157-127 75 0 131 47 151 139-58-36-119-49-184-37-49 9-90 17-124 25Z" fill="#20343a"/><circle cx="204" cy="253" r="14" fill="#152326"/><circle cx="307" cy="253" r="14" fill="#152326"/><path d="M229 315h55" stroke="#8f513e" stroke-width="13" stroke-linecap="round"/><path d="M128 397c35-35 78-52 128-52s93 17 128 52v115H128Z" fill="#10242b"/><path d="M171 182c9 24 22 43 39 58M341 182c-9 24-22 43-39 58" fill="none" stroke="#20343a" stroke-width="12" stroke-linecap="round"/></svg>